<?xml version="1.0" encoding="utf-8"?>
<!-- Generator: Adobe Illustrator 28.3.0, SVG Export Plug-In . SVG Version: 6.00 Build 0)  -->
<svg version="1.1" id="Layer_2" xmlns="http://www.w3.org/2000/svg" xmlns:xlink="http://www.w3.org/1999/xlink" x="0px" y="0px"
	 width="68px" height="100px" viewBox="0 0 68 100" style="enable-background:new 0 0 68 100;" xml:space="preserve">
<style type="text/css">
	.st0{fill:#8039C4;}
	.st1{fill:#59248E;}
	.st2{fill:#773DBD;}
	.st3{fill:#612A9E;}
</style>
<path id="Union_1" class="st0" d="M23.41,6.35l10.38-6.34l10.84,6.51L33.79,100L23.41,6.35z M0.27,0.01l23.13,6.34L33.79,100
	L0.27,0.01z M44.64,6.51L67.73,0L33.8,100L44.64,6.51z"/>
<path id="Path_487" class="st1" d="M44.63,6.51L67.73,0L33.79,100L44.63,6.51z"/>
<path id="Path_488" class="st2" d="M33.79,0l10.84,6.51L33.79,100V0z"/>
<path id="Path_489" class="st3" d="M33.79,0L23.41,6.34l10.38,93.65V0z"/>
<path id="Path_490" class="st2" d="M0.27,0L23.4,6.34l10.38,93.65L0.27,0z"/>
</svg>
